<mxfile host="app.diagrams.net" agent="Mozilla/5.0 (X11; Linux x86_64) AppleWebKit/537.36 (KHTML, like Gecko) Chrome/128.0.0.0 Safari/537.36 OPR/114.0.0.0" version="26.0.3">
  <diagram name="PÃ¡gina-1" id="HAiQAdLxMqAycqlliuGo">
    <mxGraphModel dx="1380" dy="759" grid="1" gridSize="10" guides="1" tooltips="1" connect="1" arrows="1" fold="1" page="1" pageScale="1" pageWidth="827" pageHeight="1169" math="0" shadow="0">
      <root>
        <mxCell id="0" />
        <mxCell id="1" parent="0" />
        <mxCell id="m1QYRHTY_Lvxq23sBry7-1" value="" style="rounded=1;whiteSpace=wrap;html=1;fillColor=none;" vertex="1" parent="1">
          <mxGeometry x="170" y="30" width="460" height="700" as="geometry" />
        </mxCell>
        <mxCell id="m1QYRHTY_Lvxq23sBry7-34" style="edgeStyle=none;shape=connector;rounded=0;orthogonalLoop=1;jettySize=auto;html=1;exitX=1;exitY=0.3333333333333333;exitDx=0;exitDy=0;exitPerimeter=0;entryX=0;entryY=0.5;entryDx=0;entryDy=0;strokeColor=default;align=center;verticalAlign=middle;fontFamily=Helvetica;fontSize=11;fontColor=default;labelBackgroundColor=default;startArrow=none;startFill=0;endArrow=none;endFill=0;" edge="1" parent="1" source="m1QYRHTY_Lvxq23sBry7-3" target="m1QYRHTY_Lvxq23sBry7-19">
          <mxGeometry relative="1" as="geometry" />
        </mxCell>
        <mxCell id="m1QYRHTY_Lvxq23sBry7-35" style="edgeStyle=none;shape=connector;rounded=0;orthogonalLoop=1;jettySize=auto;html=1;exitX=1;exitY=0.3333333333333333;exitDx=0;exitDy=0;exitPerimeter=0;entryX=0;entryY=0.5;entryDx=0;entryDy=0;strokeColor=default;align=center;verticalAlign=middle;fontFamily=Helvetica;fontSize=11;fontColor=default;labelBackgroundColor=default;startArrow=none;startFill=0;endArrow=none;endFill=0;" edge="1" parent="1" source="m1QYRHTY_Lvxq23sBry7-3" target="m1QYRHTY_Lvxq23sBry7-21">
          <mxGeometry relative="1" as="geometry" />
        </mxCell>
        <mxCell id="m1QYRHTY_Lvxq23sBry7-3" value="adm" style="shape=umlActor;verticalLabelPosition=bottom;verticalAlign=top;html=1;outlineConnect=0;" vertex="1" parent="1">
          <mxGeometry x="60" y="315" width="30" height="60" as="geometry" />
        </mxCell>
        <mxCell id="m1QYRHTY_Lvxq23sBry7-4" value="Visitante" style="shape=umlActor;verticalLabelPosition=bottom;verticalAlign=top;html=1;outlineConnect=0;" vertex="1" parent="1">
          <mxGeometry x="720" y="210" width="30" height="60" as="geometry" />
        </mxCell>
        <mxCell id="m1QYRHTY_Lvxq23sBry7-12" style="rounded=0;orthogonalLoop=1;jettySize=auto;html=1;exitX=0;exitY=0.3333333333333333;exitDx=0;exitDy=0;exitPerimeter=0;entryX=1;entryY=0.5;entryDx=0;entryDy=0;startArrow=none;startFill=0;endArrow=none;endFill=0;" edge="1" parent="1" source="m1QYRHTY_Lvxq23sBry7-5" target="m1QYRHTY_Lvxq23sBry7-9">
          <mxGeometry relative="1" as="geometry" />
        </mxCell>
        <mxCell id="m1QYRHTY_Lvxq23sBry7-5" value="Cliente" style="shape=umlActor;verticalLabelPosition=bottom;verticalAlign=top;html=1;outlineConnect=0;" vertex="1" parent="1">
          <mxGeometry x="720" y="390" width="30" height="60" as="geometry" />
        </mxCell>
        <mxCell id="m1QYRHTY_Lvxq23sBry7-15" style="edgeStyle=none;shape=connector;rounded=0;orthogonalLoop=1;jettySize=auto;html=1;exitX=1;exitY=0.5;exitDx=0;exitDy=0;strokeColor=default;align=center;verticalAlign=middle;fontFamily=Helvetica;fontSize=11;fontColor=default;labelBackgroundColor=default;startArrow=none;startFill=0;endArrow=none;endFill=0;" edge="1" parent="1" source="m1QYRHTY_Lvxq23sBry7-6" target="m1QYRHTY_Lvxq23sBry7-4">
          <mxGeometry relative="1" as="geometry" />
        </mxCell>
        <mxCell id="m1QYRHTY_Lvxq23sBry7-6" value="entrar na conta" style="ellipse;whiteSpace=wrap;html=1;" vertex="1" parent="1">
          <mxGeometry x="460" y="210" width="100" height="60" as="geometry" />
        </mxCell>
        <mxCell id="m1QYRHTY_Lvxq23sBry7-9" value="visualizar e alterar dados da conta" style="ellipse;whiteSpace=wrap;html=1;" vertex="1" parent="1">
          <mxGeometry x="450" y="360" width="120" height="50" as="geometry" />
        </mxCell>
        <mxCell id="m1QYRHTY_Lvxq23sBry7-13" style="edgeStyle=none;shape=connector;rounded=0;orthogonalLoop=1;jettySize=auto;html=1;exitX=1;exitY=0.5;exitDx=0;exitDy=0;strokeColor=default;align=center;verticalAlign=middle;fontFamily=Helvetica;fontSize=11;fontColor=default;labelBackgroundColor=default;startArrow=none;startFill=0;endArrow=none;endFill=0;" edge="1" parent="1" source="m1QYRHTY_Lvxq23sBry7-10" target="m1QYRHTY_Lvxq23sBry7-5">
          <mxGeometry relative="1" as="geometry" />
        </mxCell>
        <mxCell id="m1QYRHTY_Lvxq23sBry7-10" value="visualizar ficha de treino" style="ellipse;whiteSpace=wrap;html=1;" vertex="1" parent="1">
          <mxGeometry x="450" y="480" width="120" height="50" as="geometry" />
        </mxCell>
        <mxCell id="m1QYRHTY_Lvxq23sBry7-17" value="" style="endArrow=none;html=1;rounded=0;strokeColor=default;align=center;verticalAlign=middle;fontFamily=Helvetica;fontSize=11;fontColor=default;labelBackgroundColor=default;exitX=0.002;exitY=0.121;exitDx=0;exitDy=0;exitPerimeter=0;entryX=0.995;entryY=0.12;entryDx=0;entryDy=0;entryPerimeter=0;" edge="1" parent="1" source="m1QYRHTY_Lvxq23sBry7-1" target="m1QYRHTY_Lvxq23sBry7-1">
          <mxGeometry width="50" height="50" relative="1" as="geometry">
            <mxPoint x="450" y="440" as="sourcePoint" />
            <mxPoint x="631" y="104" as="targetPoint" />
            <Array as="points" />
          </mxGeometry>
        </mxCell>
        <mxCell id="m1QYRHTY_Lvxq23sBry7-18" value="Sistema" style="text;strokeColor=none;fillColor=none;html=1;fontSize=20;fontStyle=0;verticalAlign=middle;align=center;fontFamily=Helvetica;fontColor=default;labelBackgroundColor=none;shadow=0;rounded=0;glass=0;" vertex="1" parent="1">
          <mxGeometry x="285" y="30" width="230" height="80" as="geometry" />
        </mxCell>
        <mxCell id="m1QYRHTY_Lvxq23sBry7-19" value="matricular, visualizar,&amp;nbsp;editar dados e excluir aluno" style="ellipse;whiteSpace=wrap;html=1;" vertex="1" parent="1">
          <mxGeometry x="200" y="150" width="130" height="80" as="geometry" />
        </mxCell>
        <mxCell id="m1QYRHTY_Lvxq23sBry7-20" value="criar, visualizar, editar excluir medidas do aluno" style="ellipse;whiteSpace=wrap;html=1;" vertex="1" parent="1">
          <mxGeometry x="200" y="315" width="140" height="70" as="geometry" />
        </mxCell>
        <mxCell id="m1QYRHTY_Lvxq23sBry7-21" value="criar, visualizar, editar excluir a ficha de treino do aluno" style="ellipse;whiteSpace=wrap;html=1;" vertex="1" parent="1">
          <mxGeometry x="200" y="240" width="140" height="70" as="geometry" />
        </mxCell>
        <mxCell id="m1QYRHTY_Lvxq23sBry7-38" style="edgeStyle=none;shape=connector;rounded=0;orthogonalLoop=1;jettySize=auto;html=1;exitX=0;exitY=0.5;exitDx=0;exitDy=0;strokeColor=default;align=center;verticalAlign=middle;fontFamily=Helvetica;fontSize=11;fontColor=default;labelBackgroundColor=default;startArrow=none;startFill=0;endArrow=none;endFill=0;" edge="1" parent="1" source="m1QYRHTY_Lvxq23sBry7-23">
          <mxGeometry relative="1" as="geometry">
            <mxPoint x="90" y="340" as="targetPoint" />
          </mxGeometry>
        </mxCell>
        <mxCell id="m1QYRHTY_Lvxq23sBry7-23" value="criar, visualizar, editar excluir pagamento de mensalidade do aluno" style="ellipse;whiteSpace=wrap;html=1;" vertex="1" parent="1">
          <mxGeometry x="200" y="470" width="140" height="80" as="geometry" />
        </mxCell>
        <mxCell id="m1QYRHTY_Lvxq23sBry7-24" value="criar, visualizar, editar excluir anual do aluno&amp;nbsp;" style="ellipse;whiteSpace=wrap;html=1;" vertex="1" parent="1">
          <mxGeometry x="205" y="390" width="130" height="70" as="geometry" />
        </mxCell>
        <mxCell id="m1QYRHTY_Lvxq23sBry7-25" value="vizualizar medidas" style="ellipse;whiteSpace=wrap;html=1;" vertex="1" parent="1">
          <mxGeometry x="450" y="420" width="120" height="50" as="geometry" />
        </mxCell>
        <mxCell id="m1QYRHTY_Lvxq23sBry7-26" style="edgeStyle=none;shape=connector;rounded=0;orthogonalLoop=1;jettySize=auto;html=1;exitX=1;exitY=0.5;exitDx=0;exitDy=0;strokeColor=default;align=center;verticalAlign=middle;fontFamily=Helvetica;fontSize=11;fontColor=default;labelBackgroundColor=default;startArrow=none;startFill=0;endArrow=none;endFill=0;" edge="1" parent="1" source="m1QYRHTY_Lvxq23sBry7-25">
          <mxGeometry relative="1" as="geometry">
            <mxPoint x="720" y="420" as="targetPoint" />
          </mxGeometry>
        </mxCell>
        <mxCell id="m1QYRHTY_Lvxq23sBry7-28" style="edgeStyle=none;shape=connector;rounded=0;orthogonalLoop=1;jettySize=auto;html=1;exitX=1;exitY=0.5;exitDx=0;exitDy=0;strokeColor=default;align=center;verticalAlign=middle;fontFamily=Helvetica;fontSize=11;fontColor=default;labelBackgroundColor=default;startArrow=none;startFill=0;endArrow=none;endFill=0;" edge="1" parent="1" source="m1QYRHTY_Lvxq23sBry7-27" target="m1QYRHTY_Lvxq23sBry7-5">
          <mxGeometry relative="1" as="geometry" />
        </mxCell>
        <mxCell id="m1QYRHTY_Lvxq23sBry7-27" value="visualizar e pagar mensalidade" style="ellipse;whiteSpace=wrap;html=1;" vertex="1" parent="1">
          <mxGeometry x="450" y="540" width="120" height="50" as="geometry" />
        </mxCell>
        <mxCell id="m1QYRHTY_Lvxq23sBry7-39" style="edgeStyle=none;shape=connector;rounded=0;orthogonalLoop=1;jettySize=auto;html=1;exitX=0;exitY=0.5;exitDx=0;exitDy=0;strokeColor=default;align=center;verticalAlign=middle;fontFamily=Helvetica;fontSize=11;fontColor=default;labelBackgroundColor=default;startArrow=none;startFill=0;endArrow=none;endFill=0;" edge="1" parent="1" source="m1QYRHTY_Lvxq23sBry7-31">
          <mxGeometry relative="1" as="geometry">
            <mxPoint x="90" y="340" as="targetPoint" />
          </mxGeometry>
        </mxCell>
        <mxCell id="m1QYRHTY_Lvxq23sBry7-31" value="criar, visualizar, editar excluir anual do aluno&amp;nbsp;" style="ellipse;whiteSpace=wrap;html=1;" vertex="1" parent="1">
          <mxGeometry x="205" y="560" width="130" height="70" as="geometry" />
        </mxCell>
        <mxCell id="m1QYRHTY_Lvxq23sBry7-32" value="visualizar anuais" style="ellipse;whiteSpace=wrap;html=1;" vertex="1" parent="1">
          <mxGeometry x="450" y="600" width="120" height="50" as="geometry" />
        </mxCell>
        <mxCell id="m1QYRHTY_Lvxq23sBry7-33" style="edgeStyle=none;shape=connector;rounded=0;orthogonalLoop=1;jettySize=auto;html=1;exitX=1;exitY=0.5;exitDx=0;exitDy=0;entryX=0;entryY=1;entryDx=0;entryDy=0;entryPerimeter=0;strokeColor=default;align=center;verticalAlign=middle;fontFamily=Helvetica;fontSize=11;fontColor=default;labelBackgroundColor=default;startArrow=none;startFill=0;endArrow=none;endFill=0;" edge="1" parent="1" source="m1QYRHTY_Lvxq23sBry7-32" target="m1QYRHTY_Lvxq23sBry7-5">
          <mxGeometry relative="1" as="geometry" />
        </mxCell>
        <mxCell id="m1QYRHTY_Lvxq23sBry7-36" style="edgeStyle=none;shape=connector;rounded=0;orthogonalLoop=1;jettySize=auto;html=1;exitX=0;exitY=0.5;exitDx=0;exitDy=0;entryX=1;entryY=0.3333333333333333;entryDx=0;entryDy=0;entryPerimeter=0;strokeColor=default;align=center;verticalAlign=middle;fontFamily=Helvetica;fontSize=11;fontColor=default;labelBackgroundColor=default;startArrow=none;startFill=0;endArrow=none;endFill=0;" edge="1" parent="1" source="m1QYRHTY_Lvxq23sBry7-20" target="m1QYRHTY_Lvxq23sBry7-3">
          <mxGeometry relative="1" as="geometry" />
        </mxCell>
        <mxCell id="m1QYRHTY_Lvxq23sBry7-37" style="edgeStyle=none;shape=connector;rounded=0;orthogonalLoop=1;jettySize=auto;html=1;exitX=0;exitY=0.5;exitDx=0;exitDy=0;entryX=1;entryY=0.3333333333333333;entryDx=0;entryDy=0;entryPerimeter=0;strokeColor=default;align=center;verticalAlign=middle;fontFamily=Helvetica;fontSize=11;fontColor=default;labelBackgroundColor=default;startArrow=none;startFill=0;endArrow=none;endFill=0;" edge="1" parent="1" source="m1QYRHTY_Lvxq23sBry7-24" target="m1QYRHTY_Lvxq23sBry7-3">
          <mxGeometry relative="1" as="geometry" />
        </mxCell>
      </root>
    </mxGraphModel>
  </diagram>
</mxfile>
